<svg xmlns="http://www.w3.org/2000/svg" width="30.428" height="20.04" viewBox="0 0 30.428 20.04"><defs><style>.a{fill:#848484;}</style></defs><g transform="translate(-1191.179 -319)"><path class="a" d="M20.393,20.48c-2.76,0-8.313,1.049-14.48,8.068a2.963,2.963,0,0,0,0,3.9c6.167,7.019,11.721,8.068,14.48,8.068s8.313-1.049,14.48-8.068a2.963,2.963,0,0,0,0-3.9C28.705,21.529,23.152,20.48,20.393,20.48ZM33.6,31.342c-1.979,2.24-7.226,7.481-13.2,7.481s-11.225-5.241-13.2-7.491a1.263,1.263,0,0,1,0-1.663c1.979-2.25,7.226-7.491,13.2-7.491s11.225,5.241,13.2,7.491a1.263,1.263,0,0,1,0,1.663Z" transform="translate(1186 298.52)"/><path class="a" d="M37.581,31.1a6.415,6.415,0,1,0,6.449,6.415A6.415,6.415,0,0,0,37.581,31.1Z" transform="translate(1168.811 291.505)"/></g></svg>