<svg xmlns="http://www.w3.org/2000/svg" width="20" height="20" viewBox="0 0 20 20"><defs><style>.a{fill:#848484;}</style></defs><g transform="translate(-684 -94.191)"><path class="a" d="M14.634,24.6a.6.6,0,0,0,.634-.634V17.634a.634.634,0,1,0-1.267,0v6.336A.6.6,0,0,0,14.634,24.6Z" transform="translate(677.493 85.973)"/><path class="a" d="M20.734,24.6a.6.6,0,0,0,.634-.634V17.634a.634.634,0,1,0-1.267,0v6.336A.6.6,0,0,0,20.734,24.6Z" transform="translate(675.202 85.973)"/><path class="a" d="M20.125,2.222h-3.75V1.667A1.748,1.748,0,0,0,14.5,0h-5A1.748,1.748,0,0,0,7.625,1.667v.556H3.875A1.748,1.748,0,0,0,2,3.889V5A1.748,1.748,0,0,0,3.875,6.667H4.5V17.056A3.033,3.033,0,0,0,7.625,20h8.75A3.033,3.033,0,0,0,19.5,17.056V6.667h.625A1.748,1.748,0,0,0,22,5V3.889A1.748,1.748,0,0,0,20.125,2.222ZM8.875,1.667A.56.56,0,0,1,9.5,1.111h5a.56.56,0,0,1,.625.556v.556H8.875ZM18.25,17.056a1.845,1.845,0,0,1-1.875,1.833H7.625A1.845,1.845,0,0,1,5.75,17.056V6.667h12.5ZM20.75,5a.56.56,0,0,1-.625.556H3.875A.56.56,0,0,1,3.25,5V3.889a.56.56,0,0,1,.625-.556h16.25a.56.56,0,0,1,.625.556Z" transform="translate(682 94.191)"/></g></svg>