<svg xmlns="http://www.w3.org/2000/svg" width="20" height="20" viewBox="0 0 20 20"><defs><style>.a{fill:#848484;}</style></defs><g transform="translate(-1196 -94)"><path class="a" d="M6.833,9.958H16.917a3.3,3.3,0,0,0,3.25,2.375,3.374,3.374,0,0,0,3.25-2.375h1.75a.793.793,0,1,0,0-1.583h-1.75A3.3,3.3,0,0,0,20.167,6a3.374,3.374,0,0,0-3.25,2.375H6.833a.793.793,0,1,0,0,1.583ZM20.167,7.583a1.631,1.631,0,0,1,1.667,1.583,1.669,1.669,0,0,1-3.333,0A1.631,1.631,0,0,1,20.167,7.583Z" transform="translate(1190 88)"/><path class="a" d="M25.167,16.375H15.083A3.3,3.3,0,0,0,11.833,14a3.374,3.374,0,0,0-3.25,2.375H6.833a.793.793,0,1,0,0,1.583h1.75a3.3,3.3,0,0,0,3.25,2.375,3.374,3.374,0,0,0,3.25-2.375H25.167a.793.793,0,1,0,0-1.583ZM11.833,18.75A1.585,1.585,0,1,1,13.5,17.167,1.631,1.631,0,0,1,11.833,18.75Z" transform="translate(1190 86.833)"/><path class="a" d="M25.167,24.375h-1.75A3.3,3.3,0,0,0,20.167,22a3.374,3.374,0,0,0-3.25,2.375H6.833a.793.793,0,1,0,0,1.583H16.917a3.3,3.3,0,0,0,3.25,2.375,3.374,3.374,0,0,0,3.25-2.375h1.75a.793.793,0,1,0,0-1.583Zm-5,2.375a1.585,1.585,0,1,1,1.667-1.583A1.631,1.631,0,0,1,20.167,26.75Z" transform="translate(1190 85.667)"/></g></svg>