<svg xmlns="http://www.w3.org/2000/svg" width="30" height="30" viewBox="0 0 30 30"><defs><style>.a{fill:#fff;opacity:0;}.b{fill:#f2b005;}</style></defs><g transform="translate(-918 -306)"><rect class="a" width="30" height="30" transform="translate(918 306)"/><g transform="translate(915 304.877)"><g transform="translate(3.558 1.592)"><path class="b" d="M14.014,1.592A10.426,10.426,0,0,0,3.746,13.984a1.4,1.4,0,0,0,.025.172c1.341,6.473,7.217,13.887,9.174,16.213a1.4,1.4,0,0,0,.2.194h0q.054.043.112.081h0q.058.038.12.069h0a1.4,1.4,0,0,0,1.661-.3l.039-.044c1.957-2.326,7.836-9.741,9.177-16.213a1.394,1.394,0,0,0,.028-.185A10.424,10.424,0,0,0,14.014,1.592Zm0,6.147a4.219,4.219,0,1,1-4.219,4.219,4.219,4.219,0,0,1,4.219-4.219Z" transform="translate(-3.558 -1.592)"/></g></g></g></svg>