<svg xmlns="http://www.w3.org/2000/svg" xmlns:xlink="http://www.w3.org/1999/xlink" width="20" height="17.555" viewBox="0 0 20 17.555"><defs><style>.a{fill:none;}.b{clip-path:url(#a);}.c{fill:#fdfdfd;}</style><clipPath id="a"><rect class="a" width="20" height="17.555"/></clipPath></defs><g class="b"><g transform="translate(0 10.078)"><path class="c" d="M29.917,61.676H11.483a.7.7,0,0,1-.783-.625c0-4.415,3.551-6.851,10-6.851s10,2.437,10,6.851A.7.7,0,0,1,29.917,61.676Z" transform="translate(-10.7 -54.2)"/></g><g transform="translate(5.668)"><path class="c" d="M33.287,16.717A4.38,4.38,0,0,1,29.1,12.171a4.188,4.188,0,1,1,8.375,0A4.38,4.38,0,0,1,33.287,16.717Z" transform="translate(-29.1 -7.9)"/></g></g></svg>