<svg xmlns="http://www.w3.org/2000/svg" width="80" height="80" viewBox="0 0 80 80"><defs><style>.a{fill:#ef2346;}</style></defs><g transform="translate(-2.5 -2.5)"><path class="a" d="M42.5,2.5a40,40,0,1,0,40,40A40.046,40.046,0,0,0,42.5,2.5Zm0,75.1A35.1,35.1,0,1,1,77.6,42.5,35.143,35.143,0,0,1,42.5,77.6ZM31.964,35.246a4.521,4.521,0,1,0-4.521-4.521A4.521,4.521,0,0,0,31.964,35.246Zm21.071,0a4.521,4.521,0,1,0-4.52-4.521A4.521,4.521,0,0,0,53.036,35.246ZM42.5,43.5c-11.738,0-17.284,8.04-18.577,12.292a2.449,2.449,0,0,0,4.685,1.425c.027-.088,2.809-8.819,13.891-8.819,10.96,0,13.779,8.472,13.89,8.819a2.449,2.449,0,0,0,2.342,1.737,2.409,2.409,0,0,0,.712-.107,2.448,2.448,0,0,0,1.632-3.054C59.783,51.538,54.238,43.5,42.5,43.5Z"/></g></svg>